<svg width="33" height="48" viewBox="0 0 33 48" fill="none" xmlns="http://www.w3.org/2000/svg">
<rect x="5" y="22" width="23" height="22" fill="white"/>
<rect y="18" width="33" height="2" fill="white"/>
<rect y="46" width="33" height="2" fill="white"/>
<path d="M13.5556 32.087L22 26L17.3333 31.3261L22 32.8478L12 40L17.3333 33.6087L13.5556 32.087Z" stroke="#407BFF"/>
<path d="M10.2105 0H11.8684V2.07692H15V4.15385H11.8684V6.40385H15V9H11.8684V10.5577H15V12.8077H11.8684V14.2788H15V17.1346H11.8684H8V14.2788H11.8684V12.8077H8V10.5577H11.8684V9H8V6.40385H11.8684V4.15385H8V2.07692H10.2105V0Z" fill="white"/>
<path d="M10.2105 0H11.8684V2.07692H15V4.15385H11.8684V6.40385H15V9H11.8684V10.5577H15V12.8077H11.8684V14.2788H15V17.1346H11.8684H8V14.2788H11.8684V12.8077H8V10.5577H11.8684V9H8V6.40385H11.8684V4.15385H8V2.07692H10.2105V0Z" fill="white"/>
<path d="M10.2105 0H11.8684V2.07692H15V4.15385H11.8684V6.40385H15V9H11.8684V10.5577H15V12.8077H11.8684V14.2788H15V17.1346H11.8684H8V14.2788H11.8684V12.8077H8V10.5577H11.8684V9H8V6.40385H11.8684V4.15385H8V2.07692H10.2105V0Z" fill="white"/>
<rect width="2" height="18" transform="matrix(-1 0 0 1 12 0)" fill="white"/>
<rect width="2" height="18" transform="matrix(-1 0 0 1 12 0)" fill="white"/>
<rect width="2" height="18" transform="matrix(-1 0 0 1 12 0)" fill="white"/>
<path d="M20.2105 0H21.8684V2.07692H25V4.15385H21.8684V6.40385H25V9H21.8684V10.5577H25V12.8077H21.8684V14.2788H25V17.1346H21.8684H18V14.2788H21.8684V12.8077H18V10.5577H21.8684V9H18V6.40385H21.8684V4.15385H18V2.07692H20.2105V0Z" fill="white"/>
<path d="M20.2105 0H21.8684V2.07692H25V4.15385H21.8684V6.40385H25V9H21.8684V10.5577H25V12.8077H21.8684V14.2788H25V17.1346H21.8684H18V14.2788H21.8684V12.8077H18V10.5577H21.8684V9H18V6.40385H21.8684V4.15385H18V2.07692H20.2105V0Z" fill="white"/>
<path d="M20.2105 0H21.8684V2.07692H25V4.15385H21.8684V6.40385H25V9H21.8684V10.5577H25V12.8077H21.8684V14.2788H25V17.1346H21.8684H18V14.2788H21.8684V12.8077H18V10.5577H21.8684V9H18V6.40385H21.8684V4.15385H18V2.07692H20.2105V0Z" fill="white"/>
<rect width="2" height="18" transform="matrix(-1 0 0 1 22 0)" fill="white"/>
<rect width="2" height="18" transform="matrix(-1 0 0 1 22 0)" fill="white"/>
<rect width="2" height="18" transform="matrix(-1 0 0 1 22 0)" fill="white"/>
</svg>